<svg width="80" height="80" viewBox="0 0 144 144" fill="none" xmlns="http://www.w3.org/2000/svg">
<g filter="url(#filter0_d_495_415)">
<path fill-rule="evenodd" clip-rule="evenodd" d="M72.3657 0.5C54.4636 0.5 37.2947 7.61159 24.636 20.2703C11.9773 32.929 4.86572 50.0979 4.86572 68C4.86572 85.9021 11.9773 103.071 24.636 115.73C37.2947 128.388 54.4636 135.5 72.3657 135.5H106.116C116.601 135.5 121.843 135.5 125.976 133.79C128.706 132.659 131.188 131.002 133.277 128.912C135.367 126.822 137.025 124.341 138.156 121.61C139.866 117.477 139.866 112.235 139.866 101.75V68C139.866 50.0979 132.754 32.929 120.095 20.2703C107.437 7.61159 90.2678 0.5 72.3657 0.5ZM42.3657 60.5C42.3657 58.5109 43.1559 56.6032 44.5624 55.1967C45.9689 53.7902 47.8766 53 49.8657 53H94.8657C96.8548 53 98.7625 53.7902 100.169 55.1967C101.576 56.6032 102.366 58.5109 102.366 60.5C102.366 62.4891 101.576 64.3968 100.169 65.8033C98.7625 67.2098 96.8548 68 94.8657 68H49.8657C47.8766 68 45.9689 67.2098 44.5624 65.8033C43.1559 64.3968 42.3657 62.4891 42.3657 60.5ZM64.8657 90.5C64.8657 88.5109 65.6559 86.6032 67.0624 85.1967C68.4689 83.7902 70.3766 83 72.3657 83H94.8657C96.8548 83 98.7625 83.7902 100.169 85.1967C101.576 86.6032 102.366 88.5109 102.366 90.5C102.366 92.4891 101.576 94.3968 100.169 95.8033C98.7625 97.2098 96.8548 98 94.8657 98H72.3657C70.3766 98 68.4689 97.2098 67.0624 95.8033C65.6559 94.3968 64.8657 92.4891 64.8657 90.5Z" fill="url(#paint0_linear_495_415)" fill-opacity="0.95" shape-rendering="crispEdges"/>
</g>
<defs>
<filter id="filter0_d_495_415" x="0.865723" y="0.5" width="143" height="143" filterUnits="userSpaceOnUse" color-interpolation-filters="sRGB">
<feFlood flood-opacity="0" result="BackgroundImageFix"/>
<feColorMatrix in="SourceAlpha" type="matrix" values="0 0 0 0 0 0 0 0 0 0 0 0 0 0 0 0 0 0 127 0" result="hardAlpha"/>
<feOffset dy="4"/>
<feGaussianBlur stdDeviation="2"/>
<feComposite in2="hardAlpha" operator="out"/>
<feColorMatrix type="matrix" values="0 0 0 0 0 0 0 0 0 0 0 0 0 0 0 0 0 0 0.25 0"/>
<feBlend mode="normal" in2="BackgroundImageFix" result="effect1_dropShadow_495_415"/>
<feBlend mode="normal" in="SourceGraphic" in2="effect1_dropShadow_495_415" result="shape"/>
</filter>
<linearGradient id="paint0_linear_495_415" x1="122.766" y1="68" x2="72.3657" y2="135.5" gradientUnits="userSpaceOnUse">
<stop offset="0.259615" stop-color="#3B82F6"/>
<stop offset="0.783654" stop-color="#10B981"/>
</linearGradient>
</defs>
</svg>
