<svg width="1955" height="817" viewBox="0 0 1955 817" fill="none" xmlns="http://www.w3.org/2000/svg">
<path d="M1869.46 340.627C1897.98 423.879 1835.9 502.284 1746.55 476.644C1674.24 550.799 1583.89 535.489 1520.12 495.788C1430.1 523.342 1342.66 493.831 1349.62 419.807C1239.02 409.397 1204.52 304.102 1285.76 248.229C1239 199.577 1319.67 75.1293 1417.85 108.343C1472.94 22.1301 1541.41 -5.59228 1630.27 66.3924C1736.81 9.09799 1879.34 71.8553 1842.37 160.523C1982.07 210.381 1943.44 303.157 1869.46 340.627Z" fill="#F0F4FB"/>
<path d="M746.46 590.828C780.469 678.224 709.257 759.562 605.262 731.767C522.128 808.548 417.085 791.548 342.626 749.324C238.424 777.166 136.601 745.343 143.882 667.987C15.3816 655.892 -25.8201 545.374 67.8754 487.814C13.0665 436.413 105.352 307.115 219.68 342.928C282.696 253.347 361.874 225.095 465.813 301.362C588.863 242.591 755.001 309.791 713.047 402.138C875.759 455.814 831.927 552.44 746.46 590.828Z" fill="#F0F4FB"/>
</svg>
