<svg width="281" height="85" viewBox="0 0 281 85" fill="none" xmlns="http://www.w3.org/2000/svg">
<path d="M113.71 62V24.86H134.77V29.06H118.63V40.64H132.85V44.78H118.63V62H113.71ZM164.35 48.08C164.35 50.28 164.03 52.28 163.39 54.08C162.79 55.84 161.93 57.36 160.81 58.64C159.69 59.92 158.35 60.92 156.79 61.64C155.23 62.32 153.53 62.66 151.69 62.66C149.89 62.66 148.21 62.32 146.65 61.64C145.13 60.92 143.81 59.92 142.69 58.64C141.57 57.36 140.69 55.84 140.05 54.08C139.45 52.28 139.15 50.28 139.15 48.08C139.15 45.88 139.45 43.88 140.05 42.08C140.69 40.28 141.57 38.76 142.69 37.52C143.81 36.24 145.13 35.26 146.65 34.58C148.21 33.86 149.89 33.5 151.69 33.5C153.53 33.5 155.23 33.86 156.79 34.58C158.35 35.26 159.69 36.24 160.81 37.52C161.93 38.76 162.79 40.28 163.39 42.08C164.03 43.88 164.35 45.88 164.35 48.08ZM159.25 48.08C159.25 44.92 158.57 42.44 157.21 40.64C155.85 38.8 154.01 37.88 151.69 37.88C149.41 37.88 147.59 38.8 146.23 40.64C144.91 42.44 144.25 44.92 144.25 48.08C144.25 51.2 144.91 53.68 146.23 55.52C147.59 57.32 149.41 58.22 151.69 58.22C154.01 58.22 155.85 57.32 157.21 55.52C158.57 53.68 159.25 51.2 159.25 48.08ZM171.67 62V35.66C175.75 34.26 179.87 33.56 184.03 33.56C185.31 33.56 186.53 33.62 187.69 33.74C188.85 33.82 190.13 34.02 191.53 34.34L190.63 38.72C189.35 38.36 188.21 38.14 187.21 38.06C186.25 37.94 185.19 37.88 184.03 37.88C181.59 37.88 179.11 38.22 176.59 38.9V62H171.67ZM206.29 29.84C205.25 29.84 204.35 29.48 203.59 28.76C202.83 28.04 202.45 27.06 202.45 25.82C202.45 24.58 202.83 23.6 203.59 22.88C204.35 22.16 205.25 21.8 206.29 21.8C207.37 21.8 208.27 22.16 208.99 22.88C209.75 23.6 210.13 24.58 210.13 25.82C210.13 27.06 209.75 28.04 208.99 28.76C208.27 29.48 207.37 29.84 206.29 29.84ZM205.03 38.3H196.99V34.16H209.95V51.26C209.95 54.02 210.33 55.88 211.09 56.84C211.85 57.76 212.99 58.22 214.51 58.22C215.67 58.22 216.73 58.08 217.69 57.8C218.69 57.52 219.47 57.22 220.03 56.9L220.75 61.1C220.51 61.22 220.17 61.38 219.73 61.58C219.29 61.74 218.77 61.9 218.17 62.06C217.61 62.22 216.97 62.36 216.25 62.48C215.57 62.6 214.85 62.66 214.09 62.66C212.33 62.66 210.87 62.42 209.71 61.94C208.55 61.46 207.61 60.74 206.89 59.78C206.21 58.82 205.73 57.64 205.45 56.24C205.17 54.8 205.03 53.14 205.03 51.26V38.3ZM226.51 34.94C228.31 34.5 230.09 34.16 231.85 33.92C233.65 33.68 235.33 33.56 236.89 33.56C240.61 33.56 243.41 34.52 245.29 36.44C247.21 38.36 248.17 41.44 248.17 45.68V62H243.25V46.58C243.25 44.78 243.09 43.32 242.77 42.2C242.45 41.08 241.99 40.22 241.39 39.62C240.83 38.98 240.13 38.54 239.29 38.3C238.49 38.06 237.61 37.94 236.65 37.94C235.85 37.94 234.99 38 234.07 38.12C233.19 38.2 232.33 38.32 231.49 38.48V62H226.51V34.94ZM265.03 46.7C266.11 47.5 267.33 48.52 268.69 49.76C270.05 50.96 271.39 52.26 272.71 53.66C274.07 55.06 275.35 56.5 276.55 57.98C277.75 59.42 278.71 60.76 279.43 62H273.55C272.79 60.76 271.85 59.5 270.73 58.22C269.61 56.9 268.41 55.64 267.13 54.44C265.89 53.24 264.63 52.14 263.35 51.14C262.11 50.14 260.99 49.3 259.99 48.62V62H255.01V21.26L259.99 20.42V45.8C262.19 43.88 264.39 41.98 266.59 40.1C268.79 38.18 270.77 36.2 272.53 34.16H278.35C276.63 36.2 274.55 38.3 272.11 40.46C269.71 42.62 267.35 44.7 265.03 46.7Z" fill="black"/>
<path opacity="0.5" d="M74.0107 53.9491C67.9415 71.606 61.2669 44.4618 43.61 38.3926C25.9532 32.3234 4.00033 49.6275 10.0695 31.9706C16.1387 14.3137 35.3725 4.92006 53.0294 10.9893C70.6863 17.0585 80.0799 36.2923 74.0107 53.9491Z" fill="#3B82F6"/>
<path opacity="0.5" d="M10.9893 30.2149C17.0585 12.558 23.7331 39.7022 41.39 45.7714C59.0468 51.8406 80.9997 34.5366 74.9305 52.1935C68.8613 69.8503 49.6275 79.244 31.9706 73.1748C14.3137 67.1056 4.92005 47.8718 10.9893 30.2149Z" fill="#10B981"/>
</svg>
