<svg width="1200" height="630" viewBox="0 0 1200 630" fill="none" xmlns="http://www.w3.org/2000/svg">
<rect width="1200" height="630" fill="url(#paint0_linear_604_810)"/>
<g filter="url(#filter0_d_604_810)">
<mask id="path-1-outside-1_604_810" maskUnits="userSpaceOnUse" x="87.9726" y="112.262" width="637.221" height="238.523" fill="black">
<rect fill="white" x="87.9726" y="112.262" width="637.221" height="238.523"/>
<path d="M128.894 315.946L121.199 192.386L196.852 187.674L198.12 208.035L147.019 211.217L148.884 241.159L193.597 238.375L194.865 258.735L150.152 261.52L153.446 314.417L128.894 315.946ZM303.416 257.786C303.88 265.239 303.238 272.092 301.49 278.346C299.734 284.467 297.063 289.843 293.477 294.475C289.892 299.107 285.445 302.79 280.138 305.525C274.964 308.252 269.051 309.823 262.397 310.237C255.743 310.652 249.614 309.831 244.008 307.776C238.536 305.712 233.667 302.608 229.401 298.465C225.269 294.314 221.951 289.311 219.449 283.455C216.939 277.466 215.451 270.746 214.987 263.293C214.531 255.974 215.182 249.254 216.938 243.133C218.819 236.871 221.557 231.49 225.151 226.991C228.869 222.351 233.386 218.73 238.702 216.128C244.008 213.393 249.856 211.827 256.243 211.429C262.764 211.023 268.761 211.852 274.233 213.915C279.83 215.838 284.695 218.875 288.827 223.026C293.085 227.036 296.469 232.035 298.979 238.024C301.481 243.88 302.96 250.467 303.416 257.786ZM239.951 261.939C240.474 270.323 242.36 277.018 245.611 282.026C248.995 287.025 254.014 289.318 260.667 288.904C267.055 288.506 271.684 285.612 274.555 280.224C277.558 274.826 278.799 267.936 278.277 259.552C277.755 251.168 275.806 244.543 272.43 239.677C269.18 234.67 264.227 232.373 257.574 232.787C251.186 233.185 246.49 236.083 243.487 241.48C240.608 246.736 239.429 253.555 239.951 261.939ZM390.889 230.497C389.267 230.197 387.313 229.918 385.026 229.659C382.871 229.393 380.655 229.197 378.376 229.072C376.089 228.813 373.877 228.684 371.739 228.683C369.602 228.683 367.801 228.728 366.337 228.819C362.877 229.035 359.496 229.446 356.194 230.052C352.884 230.526 349.528 231.336 346.126 232.483L350.464 302.148L325.712 303.689L320.255 216.059C326.626 213.258 333.16 210.914 339.856 209.027C346.685 207.132 354.69 205.899 363.872 205.327C365.203 205.244 367.07 205.195 369.474 205.179C372.011 205.154 374.689 205.255 377.508 205.48C380.319 205.572 383.139 205.797 385.966 206.155C388.919 206.372 391.551 206.81 393.863 207.467L390.889 230.497ZM452.93 174.532C453.229 179.323 451.935 183.211 449.048 186.196C446.161 189.181 442.589 190.806 438.33 191.072C434.072 191.337 430.325 190.167 427.09 187.563C423.989 184.951 422.289 181.25 421.99 176.459C421.684 171.535 422.907 167.585 425.661 164.608C428.547 161.623 432.12 159.997 436.378 159.732C440.637 159.467 444.383 160.636 447.618 163.24C450.853 165.844 452.624 169.608 452.93 174.532ZM496.732 289.031C491.824 291.741 487.133 293.636 482.658 294.717C478.325 295.922 474.295 296.64 470.569 296.872C464.181 297.27 458.733 296.674 454.226 295.085C449.851 293.487 446.226 291.041 443.349 287.747C440.597 284.311 438.531 280.098 437.151 275.107C435.772 270.117 434.879 264.361 434.473 257.84L432.322 223.307L406.372 224.923L405.104 204.563L455.607 201.418L459.224 259.505C459.572 265.094 460.831 269.224 463.001 271.894C465.296 274.423 468.839 275.539 473.63 275.24C475.892 275.099 478.604 274.663 481.764 273.932C484.917 273.068 488.431 271.58 492.307 269.468L496.732 289.031ZM506.495 201.254C510.812 199.783 516.131 198.316 522.452 196.854C528.907 195.383 535.926 194.412 543.512 193.939C550.964 193.475 557.218 194.155 562.275 195.977C567.323 197.667 571.364 200.354 574.399 204.039C577.559 207.583 579.903 211.979 581.433 217.227C582.953 222.343 583.913 228.094 584.311 234.482L587.605 287.379L563.052 288.908L559.957 239.205C559.41 230.422 558.018 224.163 555.782 220.428C553.545 216.693 549.366 215.016 543.245 215.398C541.382 215.514 539.523 215.696 537.668 215.945C535.947 216.186 534.096 216.502 532.116 216.892L536.703 290.549L512.151 292.078L506.495 201.254ZM665.254 282.544C663.501 277.977 661.061 273.119 657.934 267.971C654.933 262.68 651.612 257.61 647.97 252.76C644.32 247.778 640.495 243.207 636.495 239.047C632.62 234.746 628.924 231.169 625.407 228.316L628.925 284.806L604.372 286.335L596.677 162.775L621.23 161.246L624.425 212.546C627.12 208.638 629.924 204.322 632.836 199.598C635.748 194.875 638.461 190.164 640.973 185.465C643.619 180.758 646.003 176.135 648.125 171.594C650.247 167.053 651.995 162.937 653.368 159.244L681.114 157.516C679.475 161.225 677.469 165.491 675.098 170.315C672.851 174.997 670.222 179.97 667.21 185.234C664.19 190.365 660.911 195.646 657.375 201.076C653.973 206.498 650.358 211.733 646.531 216.78C650.905 220.516 655.382 224.846 659.964 229.77C664.546 234.695 668.886 240.036 672.985 245.792C677.209 251.407 681.046 257.247 684.496 263.311C687.938 269.241 690.773 275.076 693.001 280.816L665.254 282.544Z"/>
</mask>
<path d="M128.894 315.946L121.199 192.386L196.852 187.674L198.12 208.035L147.019 211.217L148.884 241.159L193.597 238.375L194.865 258.735L150.152 261.52L153.446 314.417L128.894 315.946ZM303.416 257.786C303.88 265.239 303.238 272.092 301.49 278.346C299.734 284.467 297.063 289.843 293.477 294.475C289.892 299.107 285.445 302.79 280.138 305.525C274.964 308.252 269.051 309.823 262.397 310.237C255.743 310.652 249.614 309.831 244.008 307.776C238.536 305.712 233.667 302.608 229.401 298.465C225.269 294.314 221.951 289.311 219.449 283.455C216.939 277.466 215.451 270.746 214.987 263.293C214.531 255.974 215.182 249.254 216.938 243.133C218.819 236.871 221.557 231.49 225.151 226.991C228.869 222.351 233.386 218.73 238.702 216.128C244.008 213.393 249.856 211.827 256.243 211.429C262.764 211.023 268.761 211.852 274.233 213.915C279.83 215.838 284.695 218.875 288.827 223.026C293.085 227.036 296.469 232.035 298.979 238.024C301.481 243.88 302.96 250.467 303.416 257.786ZM239.951 261.939C240.474 270.323 242.36 277.018 245.611 282.026C248.995 287.025 254.014 289.318 260.667 288.904C267.055 288.506 271.684 285.612 274.555 280.224C277.558 274.826 278.799 267.936 278.277 259.552C277.755 251.168 275.806 244.543 272.43 239.677C269.18 234.67 264.227 232.373 257.574 232.787C251.186 233.185 246.49 236.083 243.487 241.48C240.608 246.736 239.429 253.555 239.951 261.939ZM390.889 230.497C389.267 230.197 387.313 229.918 385.026 229.659C382.871 229.393 380.655 229.197 378.376 229.072C376.089 228.813 373.877 228.684 371.739 228.683C369.602 228.683 367.801 228.728 366.337 228.819C362.877 229.035 359.496 229.446 356.194 230.052C352.884 230.526 349.528 231.336 346.126 232.483L350.464 302.148L325.712 303.689L320.255 216.059C326.626 213.258 333.16 210.914 339.856 209.027C346.685 207.132 354.69 205.899 363.872 205.327C365.203 205.244 367.07 205.195 369.474 205.179C372.011 205.154 374.689 205.255 377.508 205.48C380.319 205.572 383.139 205.797 385.966 206.155C388.919 206.372 391.551 206.81 393.863 207.467L390.889 230.497ZM452.93 174.532C453.229 179.323 451.935 183.211 449.048 186.196C446.161 189.181 442.589 190.806 438.33 191.072C434.072 191.337 430.325 190.167 427.09 187.563C423.989 184.951 422.289 181.25 421.99 176.459C421.684 171.535 422.907 167.585 425.661 164.608C428.547 161.623 432.12 159.997 436.378 159.732C440.637 159.467 444.383 160.636 447.618 163.24C450.853 165.844 452.624 169.608 452.93 174.532ZM496.732 289.031C491.824 291.741 487.133 293.636 482.658 294.717C478.325 295.922 474.295 296.64 470.569 296.872C464.181 297.27 458.733 296.674 454.226 295.085C449.851 293.487 446.226 291.041 443.349 287.747C440.597 284.311 438.531 280.098 437.151 275.107C435.772 270.117 434.879 264.361 434.473 257.84L432.322 223.307L406.372 224.923L405.104 204.563L455.607 201.418L459.224 259.505C459.572 265.094 460.831 269.224 463.001 271.894C465.296 274.423 468.839 275.539 473.63 275.24C475.892 275.099 478.604 274.663 481.764 273.932C484.917 273.068 488.431 271.58 492.307 269.468L496.732 289.031ZM506.495 201.254C510.812 199.783 516.131 198.316 522.452 196.854C528.907 195.383 535.926 194.412 543.512 193.939C550.964 193.475 557.218 194.155 562.275 195.977C567.323 197.667 571.364 200.354 574.399 204.039C577.559 207.583 579.903 211.979 581.433 217.227C582.953 222.343 583.913 228.094 584.311 234.482L587.605 287.379L563.052 288.908L559.957 239.205C559.41 230.422 558.018 224.163 555.782 220.428C553.545 216.693 549.366 215.016 543.245 215.398C541.382 215.514 539.523 215.696 537.668 215.945C535.947 216.186 534.096 216.502 532.116 216.892L536.703 290.549L512.151 292.078L506.495 201.254ZM665.254 282.544C663.501 277.977 661.061 273.119 657.934 267.971C654.933 262.68 651.612 257.61 647.97 252.76C644.32 247.778 640.495 243.207 636.495 239.047C632.62 234.746 628.924 231.169 625.407 228.316L628.925 284.806L604.372 286.335L596.677 162.775L621.23 161.246L624.425 212.546C627.12 208.638 629.924 204.322 632.836 199.598C635.748 194.875 638.461 190.164 640.973 185.465C643.619 180.758 646.003 176.135 648.125 171.594C650.247 167.053 651.995 162.937 653.368 159.244L681.114 157.516C679.475 161.225 677.469 165.491 675.098 170.315C672.851 174.997 670.222 179.97 667.21 185.234C664.19 190.365 660.911 195.646 657.375 201.076C653.973 206.498 650.358 211.733 646.531 216.78C650.905 220.516 655.382 224.846 659.964 229.77C664.546 234.695 668.886 240.036 672.985 245.792C677.209 251.407 681.046 257.247 684.496 263.311C687.938 269.241 690.773 275.076 693.001 280.816L665.254 282.544Z" fill="#1E3A8A"/>
<path d="M128.894 315.946L98.9516 317.811C99.9814 334.348 114.222 346.918 130.758 345.888L128.894 315.946ZM121.199 192.386L119.334 162.444C102.797 163.474 90.2268 177.714 91.2566 194.25L121.199 192.386ZM196.852 187.674L226.794 185.81C225.764 169.273 211.524 156.703 194.987 157.732L196.852 187.674ZM198.12 208.035L199.985 237.977C216.521 236.947 229.092 222.707 228.062 206.17L198.12 208.035ZM147.019 211.217L145.154 181.275C128.618 182.305 116.047 196.545 117.077 213.082L147.019 211.217ZM148.884 241.159L118.942 243.024C119.972 259.56 134.212 272.131 150.748 271.101L148.884 241.159ZM193.597 238.375L223.539 236.51C222.509 219.973 208.269 207.403 191.732 208.433L193.597 238.375ZM194.865 258.735L196.73 288.677C213.266 287.647 225.837 273.407 224.807 256.871L194.865 258.735ZM150.152 261.52L148.287 231.578C131.751 232.608 119.18 246.848 120.21 263.385L150.152 261.52ZM153.446 314.417L155.311 344.359C171.847 343.33 184.418 329.089 183.388 312.553L153.446 314.417ZM128.894 315.946L158.836 314.082L151.141 190.521L121.199 192.386L91.2566 194.25L98.9516 317.811L128.894 315.946ZM121.199 192.386L123.063 222.328L198.717 217.616L196.852 187.674L194.987 157.732L119.334 162.444L121.199 192.386ZM196.852 187.674L166.91 189.539L168.178 209.9L198.12 208.035L228.062 206.17L226.794 185.81L196.852 187.674ZM198.12 208.035L196.255 178.093L145.154 181.275L147.019 211.217L148.884 241.159L199.985 237.977L198.12 208.035ZM147.019 211.217L117.077 213.082L118.942 243.024L148.884 241.159L178.826 239.295L176.961 209.353L147.019 211.217ZM148.884 241.159L150.748 271.101L195.462 268.317L193.597 238.375L191.732 208.433L147.019 211.217L148.884 241.159ZM193.597 238.375L163.655 240.239L164.923 260.6L194.865 258.735L224.807 256.871L223.539 236.51L193.597 238.375ZM194.865 258.735L193 228.793L148.287 231.578L150.152 261.52L152.016 291.462L196.73 288.677L194.865 258.735ZM150.152 261.52L120.21 263.385L123.504 316.282L153.446 314.417L183.388 312.553L180.094 259.655L150.152 261.52ZM153.446 314.417L151.581 284.475L127.029 286.004L128.894 315.946L130.758 345.888L155.311 344.359L153.446 314.417ZM301.49 278.346L330.327 286.62C330.346 286.554 330.364 286.487 330.383 286.421L301.49 278.346ZM293.477 294.475L269.755 276.111L269.755 276.111L293.477 294.475ZM280.138 305.525L266.395 278.859C266.313 278.901 266.232 278.943 266.151 278.986L280.138 305.525ZM244.008 307.776L233.422 335.845C233.507 335.878 233.593 335.91 233.679 335.941L244.008 307.776ZM229.401 298.465L208.141 319.631C208.26 319.751 208.38 319.869 208.5 319.986L229.401 298.465ZM219.449 283.455L191.782 295.053C191.808 295.116 191.835 295.18 191.862 295.243L219.449 283.455ZM216.938 243.133L188.206 234.503C188.171 234.621 188.136 234.74 188.102 234.859L216.938 243.133ZM225.151 226.991L201.741 208.23C201.731 208.242 201.722 208.254 201.712 208.267L225.151 226.991ZM238.702 216.128L251.892 243.073C252.078 242.982 252.262 242.889 252.445 242.795L238.702 216.128ZM274.233 213.915L263.646 241.985C263.925 242.09 264.205 242.191 264.487 242.288L274.233 213.915ZM288.827 223.026L267.567 244.192C267.794 244.42 268.024 244.644 268.259 244.865L288.827 223.026ZM298.979 238.024L271.312 249.622C271.338 249.685 271.365 249.748 271.392 249.812L298.979 238.024ZM245.611 282.026L220.448 298.361C220.553 298.523 220.659 298.683 220.767 298.842L245.611 282.026ZM274.555 280.224L248.341 265.635C248.252 265.795 248.164 265.957 248.077 266.119L274.555 280.224ZM272.43 239.677L247.268 256.012C247.435 256.27 247.606 256.524 247.781 256.777L272.43 239.677ZM243.487 241.48L217.273 226.891C217.24 226.95 217.208 227.009 217.175 227.068L243.487 241.48ZM303.416 257.786L273.474 259.651C273.76 264.248 273.318 267.692 272.597 270.27L301.49 278.346L330.383 286.421C333.158 276.492 334 266.229 333.358 255.922L303.416 257.786ZM301.49 278.346L272.654 270.072C271.855 272.856 270.816 274.74 269.755 276.111L293.477 294.475L317.199 312.839C323.31 304.946 327.613 296.078 330.327 286.62L301.49 278.346ZM293.477 294.475L269.755 276.111C268.902 277.212 267.887 278.09 266.395 278.859L280.138 305.525L293.882 332.192C303.004 327.491 310.881 321.002 317.199 312.839L293.477 294.475ZM280.138 305.525L266.151 278.986C265.223 279.475 263.541 280.108 260.532 280.295L262.397 310.237L264.262 340.179C274.56 339.538 284.706 337.03 294.126 332.065L280.138 305.525ZM262.397 310.237L260.532 280.295C257.537 280.482 255.613 280.078 254.337 279.61L244.008 307.776L233.679 335.941C243.614 339.585 253.949 340.822 264.262 340.179L262.397 310.237ZM244.008 307.776L254.595 279.706C253.039 279.119 251.666 278.269 250.302 276.945L229.401 298.465L208.5 319.986C215.668 326.947 224.033 332.304 233.422 335.845L244.008 307.776ZM229.401 298.465L250.662 277.3C249.439 276.071 248.174 274.331 247.036 271.667L219.449 283.455L191.862 295.243C195.728 304.291 201.098 312.557 208.141 319.631L229.401 298.465ZM219.449 283.455L247.117 271.857C246.082 269.388 245.216 266.025 244.929 261.429L214.987 263.293L185.045 265.158C185.687 275.466 187.796 285.544 191.782 295.053L219.449 283.455ZM214.987 263.293L244.929 261.429C244.655 257.018 245.094 253.779 245.774 251.407L216.938 243.133L188.102 234.859C185.27 244.729 184.408 254.931 185.045 265.158L214.987 263.293ZM216.938 243.133L245.67 251.763C246.596 248.679 247.691 246.841 248.589 245.716L225.151 226.991L201.712 208.267C195.422 216.14 191.042 225.063 188.206 234.503L216.938 243.133ZM225.151 226.991L248.56 245.753C249.53 244.542 250.564 243.723 251.892 243.073L238.702 216.128L225.511 189.184C216.209 193.738 208.208 200.16 201.741 208.23L225.151 226.991ZM238.702 216.128L252.445 242.795C253.802 242.096 255.562 241.529 258.108 241.371L256.243 211.429L254.379 181.487C244.15 182.124 234.215 184.69 224.958 189.462L238.702 216.128ZM256.243 211.429L258.108 241.371C260.891 241.197 262.587 241.586 263.646 241.985L274.233 213.915L284.819 185.845C274.934 182.117 264.637 180.848 254.379 181.487L256.243 211.429ZM274.233 213.915L264.487 242.288C265.792 242.736 266.705 243.326 267.567 244.192L288.827 223.026L310.088 201.86C302.684 194.423 293.868 188.939 283.978 185.543L274.233 213.915ZM288.827 223.026L268.259 244.865C269.137 245.692 270.245 247.076 271.312 249.622L298.979 238.024L326.647 226.426C322.693 216.994 317.032 208.379 309.396 201.187L288.827 223.026ZM298.979 238.024L271.392 249.812C272.362 252.081 273.199 255.24 273.474 259.651L303.416 257.786L333.358 255.922C332.721 245.694 330.601 235.679 326.566 226.236L298.979 238.024ZM239.951 261.939L210.009 263.804C210.729 275.356 213.471 287.613 220.448 298.361L245.611 282.026L270.774 265.691C271.249 266.424 270.218 265.289 269.893 260.074L239.951 261.939ZM245.611 282.026L220.767 298.842C230.816 313.689 246.614 319.837 262.532 318.846L260.667 288.904L258.803 258.962C259.381 258.926 261.558 258.919 264.377 260.207C267.343 261.562 269.36 263.593 270.455 265.21L245.611 282.026ZM260.667 288.904L262.532 318.846C278.709 317.838 292.984 309.437 301.032 294.328L274.555 280.224L248.077 266.119C248.814 264.736 250.376 262.654 253.03 260.996C255.622 259.375 257.877 259.019 258.803 258.962L260.667 288.904ZM274.555 280.224L300.769 294.812C307.399 282.898 308.974 269.801 308.219 257.688L278.277 259.552L248.335 261.417C248.625 266.071 247.718 266.755 248.341 265.635L274.555 280.224ZM278.277 259.552L308.219 257.688C307.492 246.009 304.62 233.447 297.08 222.578L272.43 239.677L247.781 256.777C247.363 256.175 247.428 256.03 247.643 256.762C247.867 257.521 248.185 259 248.335 261.417L278.277 259.552ZM272.43 239.677L297.593 223.342C287.659 208.039 271.639 201.853 255.709 202.845L257.574 232.787L259.438 262.729C258.876 262.764 256.605 262.782 253.657 261.415C250.537 259.968 248.417 257.783 247.268 256.012L272.43 239.677ZM257.574 232.787L255.709 202.845C239.565 203.851 225.461 212.179 217.273 226.891L243.487 241.48L269.7 256.069C269.012 257.306 267.534 259.235 265.015 260.79C262.54 262.317 260.375 262.671 259.438 262.729L257.574 232.787ZM243.487 241.48L217.175 227.068C210.686 238.915 209.27 251.937 210.009 263.804L239.951 261.939L269.893 260.074C269.748 257.737 269.888 256.326 270.006 255.644C270.117 254.998 270.172 255.208 269.798 255.892L243.487 241.48ZM390.889 230.497L385.436 259.997C393.538 261.494 401.899 259.594 408.558 254.741C415.217 249.888 419.586 242.511 420.642 234.339L390.889 230.497ZM385.026 229.659L381.34 259.432C381.446 259.445 381.552 259.458 381.658 259.47L385.026 229.659ZM378.376 229.072L375.009 258.882C375.581 258.947 376.155 258.995 376.73 259.026L378.376 229.072ZM371.739 228.683L371.732 258.683L371.733 258.683L371.739 228.683ZM356.194 230.052L360.441 259.75C360.833 259.694 361.224 259.63 361.613 259.559L356.194 230.052ZM346.126 232.483L336.541 204.055C323.687 208.389 315.341 220.809 316.184 234.347L346.126 232.483ZM350.464 302.148L352.329 332.09C368.865 331.06 381.436 316.82 380.406 300.283L350.464 302.148ZM325.712 303.689L295.77 305.554C296.8 322.09 311.04 334.661 327.577 333.631L325.712 303.689ZM320.255 216.059L308.18 188.596C296.665 193.659 289.531 205.369 290.313 217.924L320.255 216.059ZM339.856 209.027L331.835 180.119C331.796 180.13 331.758 180.141 331.72 180.151L339.856 209.027ZM369.474 205.179L369.675 235.178C369.704 235.178 369.733 235.178 369.762 235.177L369.474 205.179ZM377.508 205.48L375.12 235.385C375.588 235.422 376.056 235.448 376.526 235.464L377.508 205.48ZM385.966 206.155L382.196 235.918C382.718 235.984 383.243 236.036 383.768 236.075L385.966 206.155ZM393.863 207.467L423.616 211.31C425.519 196.58 416.356 182.675 402.07 178.612L393.863 207.467ZM390.889 230.497L396.342 200.996C393.819 200.53 391.128 200.158 388.393 199.849L385.026 229.659L381.658 259.47C383.497 259.677 384.715 259.864 385.436 259.997L390.889 230.497ZM385.026 229.659L388.711 199.887C385.846 199.532 382.948 199.278 380.023 199.117L378.376 229.072L376.73 259.026C378.362 259.116 379.897 259.254 381.34 259.432L385.026 229.659ZM378.376 229.072L381.743 199.261C378.425 198.886 375.088 198.684 371.746 198.683L371.739 228.683L371.733 258.683C372.665 258.684 373.753 258.74 375.009 258.882L378.376 229.072ZM371.739 228.683L371.746 198.683C369.238 198.683 366.77 198.734 364.473 198.877L366.337 228.819L368.202 258.761C368.832 258.722 369.965 258.683 371.732 258.683L371.739 228.683ZM366.337 228.819L364.473 198.877C359.859 199.165 355.29 199.717 350.775 200.546L356.194 230.052L361.613 259.559C363.703 259.175 365.896 258.905 368.202 258.761L366.337 228.819ZM356.194 230.052L351.948 200.354C346.696 201.105 341.554 202.365 336.541 204.055L346.126 232.483L355.71 260.91C357.502 260.306 359.072 259.946 360.441 259.75L356.194 230.052ZM346.126 232.483L316.184 234.347L320.522 304.012L350.464 302.148L380.406 300.283L376.068 230.618L346.126 232.483ZM350.464 302.148L348.6 272.206L323.848 273.747L325.712 303.689L327.577 333.631L352.329 332.09L350.464 302.148ZM325.712 303.689L355.654 301.825L350.197 214.194L320.255 216.059L290.313 217.924L295.77 305.554L325.712 303.689ZM320.255 216.059L332.33 243.522C337.423 241.282 342.641 239.41 347.991 237.903L339.856 209.027L331.72 180.151C323.679 182.417 315.829 185.233 308.18 188.596L320.255 216.059ZM339.856 209.027L347.877 237.935C352.203 236.734 358.057 235.747 365.737 235.269L363.872 205.327L362.008 175.385C351.323 176.051 341.166 177.53 331.835 180.119L339.856 209.027ZM363.872 205.327L365.737 235.269C366.242 235.238 367.462 235.193 369.675 235.178L369.474 205.179L369.273 175.179C366.678 175.197 364.164 175.251 362.008 175.385L363.872 205.327ZM369.474 205.179L369.762 235.177C371.311 235.162 373.091 235.223 375.12 235.385L377.508 205.48L379.897 175.575C376.286 175.287 372.71 175.146 369.185 175.18L369.474 205.179ZM377.508 205.48L376.526 235.464C378.392 235.525 380.281 235.675 382.196 235.918L385.966 206.155L389.737 176.393C385.996 175.919 382.247 175.619 378.491 175.496L377.508 205.48ZM385.966 206.155L383.768 236.075C385.135 236.175 385.695 236.334 385.656 236.323L393.863 207.467L402.07 178.612C397.407 177.285 392.703 176.57 388.164 176.236L385.966 206.155ZM393.863 207.467L364.11 203.624L361.136 226.654L390.889 230.497L420.642 234.339L423.616 211.31L393.863 207.467ZM449.048 186.196L427.482 165.342L427.482 165.342L449.048 186.196ZM427.09 187.563L407.765 210.51C407.935 210.652 408.106 210.793 408.278 210.932L427.09 187.563ZM425.661 164.608L404.095 143.753C403.941 143.913 403.788 144.074 403.638 144.237L425.661 164.608ZM447.618 163.24L466.43 139.871L466.43 139.871L447.618 163.24ZM496.732 289.031L511.235 315.292C522.923 308.838 528.938 295.436 525.993 282.413L496.732 289.031ZM482.658 294.717L475.618 265.554C475.284 265.635 474.952 265.721 474.621 265.813L482.658 294.717ZM454.226 295.085L443.933 323.264C444.038 323.302 444.143 323.34 444.249 323.377L454.226 295.085ZM443.349 287.747L419.935 306.503C420.201 306.835 420.473 307.16 420.753 307.481L443.349 287.747ZM437.151 275.107L408.236 283.1L408.236 283.1L437.151 275.107ZM432.322 223.307L462.264 221.443C461.234 204.906 446.994 192.335 430.457 193.365L432.322 223.307ZM406.372 224.923L376.43 226.788C377.46 243.325 391.701 255.895 408.237 254.865L406.372 224.923ZM405.104 204.563L403.24 174.621C386.703 175.651 374.133 189.891 375.162 206.428L405.104 204.563ZM455.607 201.418L485.549 199.553C484.519 183.017 470.278 170.446 453.742 171.476L455.607 201.418ZM463.001 271.894L439.72 290.815C440.064 291.238 440.419 291.652 440.786 292.055L463.001 271.894ZM481.764 273.932L488.526 303.16C488.918 303.069 489.309 302.971 489.697 302.864L481.764 273.932ZM492.307 269.468L521.568 262.85C519.494 253.678 513.239 246.01 504.671 242.134C496.103 238.259 486.213 238.625 477.956 243.124L492.307 269.468ZM452.93 174.532L422.988 176.397C422.939 175.6 422.962 173.841 423.719 171.566C424.51 169.19 425.846 167.033 427.482 165.342L449.048 186.196L470.614 207.05C480.294 197.04 483.605 184.43 482.872 172.667L452.93 174.532ZM449.048 186.196L427.482 165.342C428.501 164.288 429.946 163.181 431.781 162.347C433.603 161.518 435.263 161.204 436.465 161.13L438.33 191.072L440.195 221.014C451.698 220.297 462.368 215.577 470.614 207.05L449.048 186.196ZM438.33 191.072L436.465 161.13C437.668 161.055 439.354 161.16 441.265 161.756C443.189 162.357 444.76 163.275 445.902 164.194L427.09 187.563L408.278 210.932C417.518 218.371 428.692 221.73 440.195 221.014L438.33 191.072ZM427.09 187.563L446.416 164.617C448.262 166.172 449.765 168.159 450.751 170.307C451.691 172.354 451.892 173.948 451.932 174.594L421.99 176.459L392.048 178.324C392.755 189.669 397.246 201.65 407.765 210.51L427.09 187.563ZM421.99 176.459L451.932 174.594C451.962 175.078 451.984 176.583 451.335 178.679C450.648 180.895 449.41 183.112 447.684 184.979L425.661 164.608L403.638 144.237C394.143 154.501 391.351 167.119 392.048 178.324L421.99 176.459ZM425.661 164.608L447.227 185.462C446.208 186.516 444.763 187.623 442.928 188.457C441.106 189.286 439.445 189.599 438.243 189.674L436.378 159.732L434.514 129.79C423.011 130.507 412.34 135.226 404.095 143.753L425.661 164.608ZM436.378 159.732L438.243 189.674C437.041 189.749 435.354 189.644 433.444 189.048C431.519 188.447 429.948 187.529 428.806 186.609L447.618 163.24L466.43 139.871C457.19 132.433 446.017 129.074 434.514 129.79L436.378 159.732ZM447.618 163.24L428.806 186.609C426.871 185.052 425.275 183.017 424.226 180.787C423.23 178.669 423.027 177.025 422.988 176.397L452.93 174.532L482.872 172.667C482.149 161.054 477.466 148.755 466.43 139.871L447.618 163.24ZM496.732 289.031L482.229 262.769C479.178 264.454 476.993 265.222 475.618 265.554L482.658 294.717L489.698 323.879C497.272 322.051 504.47 319.028 511.235 315.292L496.732 289.031ZM482.658 294.717L474.621 265.813C471.908 266.568 469.969 266.852 468.704 266.93L470.569 296.872L472.433 326.814C478.62 326.429 484.741 325.276 490.695 323.62L482.658 294.717ZM470.569 296.872L468.704 266.93C465.047 267.158 463.862 266.672 464.203 266.792L454.226 295.085L444.249 323.377C453.605 326.676 463.315 327.382 472.433 326.814L470.569 296.872ZM454.226 295.085L464.519 266.906C464.472 266.889 464.671 266.958 465.004 267.182C465.344 267.412 465.674 267.703 465.945 268.013L443.349 287.747L420.753 307.481C427.17 314.828 435.129 320.048 443.933 323.264L454.226 295.085ZM443.349 287.747L466.762 268.99C466.963 269.241 466.55 268.863 466.067 267.114L437.151 275.107L408.236 283.1C410.511 291.333 414.23 299.381 419.935 306.503L443.349 287.747ZM437.151 275.107L466.067 267.114C465.362 264.566 464.724 260.935 464.415 255.976L434.473 257.84L404.531 259.705C405.034 267.787 406.181 275.668 408.236 283.1L437.151 275.107ZM434.473 257.84L464.415 255.976L462.264 221.443L432.322 223.307L402.38 225.172L404.531 259.705L434.473 257.84ZM432.322 223.307L430.457 193.365L404.508 194.981L406.372 224.923L408.237 254.865L434.187 253.249L432.322 223.307ZM406.372 224.923L436.314 223.059L435.046 202.698L405.104 204.563L375.162 206.428L376.43 226.788L406.372 224.923ZM405.104 204.563L406.969 234.505L457.471 231.36L455.607 201.418L453.742 171.476L403.24 174.621L405.104 204.563ZM455.607 201.418L425.665 203.282L429.282 261.37L459.224 259.505L489.166 257.641L485.549 199.553L455.607 201.418ZM459.224 259.505L429.282 261.37C429.796 269.619 431.826 281.102 439.72 290.815L463.001 271.894L486.282 252.974C488.179 255.307 488.902 257.312 489.125 258.045C489.345 258.766 489.235 258.749 489.166 257.641L459.224 259.505ZM463.001 271.894L440.786 292.055C451.411 303.764 465.487 305.805 475.495 305.182L473.63 275.24L471.765 245.298C472.022 245.282 473.787 245.193 476.388 246.012C479.232 246.907 482.48 248.717 485.217 251.734L463.001 271.894ZM473.63 275.24L475.495 305.182C479.942 304.905 484.38 304.119 488.526 303.16L481.764 273.932L475.003 244.704C473.969 244.943 473.176 245.095 472.597 245.188C472.009 245.283 471.748 245.299 471.765 245.298L473.63 275.24ZM481.764 273.932L489.697 302.864C495.704 301.217 501.408 298.673 506.659 295.813L492.307 269.468L477.956 243.124C475.454 244.486 474.13 244.918 473.832 245L481.764 273.932ZM492.307 269.468L463.046 276.086L467.471 295.649L496.732 289.031L525.993 282.413L521.568 262.85L492.307 269.468ZM506.495 201.254L496.818 172.858C484.012 177.222 475.712 189.617 476.553 203.119L506.495 201.254ZM522.452 196.854L515.787 167.604C515.755 167.611 515.723 167.619 515.69 167.626L522.452 196.854ZM562.275 195.977L552.102 224.2C552.318 224.278 552.535 224.353 552.753 224.426L562.275 195.977ZM574.399 204.039L551.242 223.111C551.491 223.413 551.746 223.711 552.007 224.004L574.399 204.039ZM581.433 217.227L552.63 225.619C552.646 225.672 552.661 225.725 552.677 225.777L581.433 217.227ZM587.605 287.379L589.47 317.321C606.006 316.292 618.577 302.051 617.547 285.515L587.605 287.379ZM563.052 288.908L533.11 290.773C534.14 307.31 548.381 319.88 564.917 318.85L563.052 288.908ZM555.782 220.428L530.044 235.84L530.044 235.84L555.782 220.428ZM537.668 215.945L533.675 186.212C533.621 186.219 533.567 186.227 533.513 186.234L537.668 215.945ZM532.116 216.892L526.311 187.459C511.559 190.369 501.24 203.75 502.174 218.757L532.116 216.892ZM536.703 290.549L538.568 320.491C555.105 319.462 567.675 305.221 566.645 288.685L536.703 290.549ZM512.151 292.078L482.209 293.943C483.239 310.48 497.479 323.05 514.016 322.02L512.151 292.078ZM506.495 201.254L516.172 229.651C519.226 228.61 523.503 227.403 529.214 226.082L522.452 196.854L515.69 167.626C508.758 169.23 502.397 170.957 496.818 172.858L506.495 201.254ZM522.452 196.854L529.117 226.104C533.782 225.041 539.176 224.268 545.376 223.881L543.512 193.939L541.647 163.997C532.677 164.556 524.032 165.725 515.787 167.604L522.452 196.854ZM543.512 193.939L545.376 223.881C547.706 223.736 549.399 223.8 550.553 223.925C551.704 224.05 552.155 224.219 552.102 224.2L562.275 195.977L572.447 167.755C562.349 164.114 551.702 163.371 541.647 163.997L543.512 193.939ZM562.275 195.977L552.753 224.426C553.012 224.513 552.862 224.494 552.481 224.241C552.082 223.976 551.635 223.588 551.242 223.111L574.399 204.039L597.557 184.968C590.544 176.452 581.546 170.791 571.796 167.528L562.275 195.977ZM574.399 204.039L552.007 224.004C551.924 223.91 551.951 223.914 552.056 224.111C552.168 224.32 552.388 224.789 552.63 225.619L581.433 217.227L610.235 208.836C607.646 199.949 603.341 191.42 596.791 184.074L574.399 204.039ZM581.433 217.227L552.677 225.777C553.437 228.336 554.085 231.792 554.369 236.347L584.311 234.482L614.253 232.617C613.741 224.397 612.469 216.35 610.188 208.678L581.433 217.227ZM584.311 234.482L554.369 236.347L557.663 289.244L587.605 287.379L617.547 285.515L614.253 232.617L584.311 234.482ZM587.605 287.379L585.74 257.437L561.188 258.966L563.052 288.908L564.917 318.85L589.47 317.321L587.605 287.379ZM563.052 288.908L592.994 287.044L589.899 237.34L559.957 239.205L530.015 241.069L533.11 290.773L563.052 288.908ZM559.957 239.205L589.899 237.34C589.299 227.707 587.662 215.272 581.52 205.016L555.782 220.428L530.044 235.84C529.432 234.819 529.164 234.111 529.102 233.94C529.034 233.754 529.096 233.886 529.218 234.435C529.475 235.59 529.806 237.71 530.015 241.069L559.957 239.205ZM555.782 220.428L581.52 205.016C571.259 187.88 553.486 184.702 541.38 185.456L543.245 215.398L545.11 245.339C545.096 245.34 544.599 245.372 543.728 245.263C542.847 245.152 541.468 244.881 539.799 244.211C536.03 242.699 532.415 239.8 530.044 235.84L555.782 220.428ZM543.245 215.398L541.38 185.456C538.804 185.616 536.235 185.868 533.675 186.212L537.668 215.945L541.662 245.678C542.811 245.524 543.96 245.411 545.11 245.339L543.245 215.398ZM537.668 215.945L533.513 186.234C531.159 186.564 528.753 186.977 526.311 187.459L532.116 216.892L537.922 246.325C539.439 246.026 540.734 245.808 541.824 245.656L537.668 215.945ZM532.116 216.892L502.174 218.757L506.762 292.414L536.703 290.549L566.645 288.685L562.058 215.027L532.116 216.892ZM536.703 290.549L534.839 260.607L510.286 262.136L512.151 292.078L514.016 322.02L538.568 320.491L536.703 290.549ZM512.151 292.078L542.093 290.214L536.437 199.39L506.495 201.254L476.553 203.119L482.209 293.943L512.151 292.078ZM665.254 282.544L637.249 293.3C641.947 305.532 654.041 313.3 667.119 312.486L665.254 282.544ZM657.934 267.971L631.841 282.774C631.987 283.031 632.137 283.286 632.291 283.54L657.934 267.971ZM647.97 252.76L623.769 270.489C623.839 270.585 623.909 270.68 623.981 270.775L647.97 252.76ZM636.495 239.047L614.207 259.128C614.424 259.369 614.646 259.607 614.871 259.841L636.495 239.047ZM625.407 228.316L644.307 205.018C635.06 197.517 622.252 196.194 611.668 201.647C601.083 207.1 594.725 218.296 595.465 230.18L625.407 228.316ZM628.925 284.806L630.79 314.748C647.326 313.718 659.897 299.478 658.867 282.942L628.925 284.806ZM604.372 286.335L574.43 288.2C575.46 304.736 589.701 317.307 606.237 316.277L604.372 286.335ZM596.677 162.775L594.813 132.833C578.276 133.862 565.706 148.103 566.735 164.639L596.677 162.775ZM621.23 161.246L651.172 159.381C650.142 142.844 635.902 130.274 619.365 131.304L621.23 161.246ZM624.425 212.546L594.483 214.411C595.278 227.175 604.077 238.032 616.4 241.453C628.723 244.874 641.86 240.107 649.121 229.579L624.425 212.546ZM632.836 199.598L658.373 215.342L658.373 215.342L632.836 199.598ZM640.973 185.465L614.822 170.765C614.719 170.948 614.618 171.132 614.519 171.317L640.973 185.465ZM648.125 171.594L675.304 184.295L675.304 184.295L648.125 171.594ZM653.368 159.244L651.503 129.302C639.67 130.039 629.381 137.675 625.249 148.787L653.368 159.244ZM681.114 157.516L708.553 169.644C712.788 160.062 711.718 148.965 705.73 140.369C699.743 131.773 689.705 126.923 679.249 127.574L681.114 157.516ZM675.098 170.315L648.176 157.078C648.134 157.164 648.092 157.25 648.05 157.336L675.098 170.315ZM667.21 185.234L693.063 200.452C693.126 200.346 693.188 200.24 693.249 200.133L667.21 185.234ZM657.375 201.076L632.236 184.706C632.144 184.846 632.054 184.987 631.965 185.128L657.375 201.076ZM646.531 216.78L622.625 198.655C613.024 211.319 614.964 229.273 627.048 239.593L646.531 216.78ZM659.964 229.77L637.999 250.205L637.999 250.205L659.964 229.77ZM672.985 245.792L648.548 263.194C648.699 263.407 648.854 263.618 649.011 263.827L672.985 245.792ZM684.496 263.311L658.421 278.146C658.464 278.221 658.506 278.295 658.549 278.369L684.496 263.311ZM693.001 280.816L694.865 310.758C704.418 310.163 713.113 305.046 718.271 296.984C723.429 288.922 724.431 278.883 720.968 269.96L693.001 280.816ZM665.254 282.544L693.26 271.787C690.737 265.219 687.43 258.745 683.578 252.401L657.934 267.971L632.291 283.54C634.691 287.494 636.264 290.736 637.249 293.3L665.254 282.544ZM657.934 267.971L684.028 253.167C680.396 246.766 676.372 240.623 671.959 234.746L647.97 252.76L623.981 270.775C626.851 274.597 629.47 278.594 631.841 282.774L657.934 267.971ZM647.97 252.76L672.171 235.032C667.786 229.046 663.108 223.441 658.12 218.254L636.495 239.047L614.871 259.841C617.882 262.972 620.853 266.509 623.769 270.489L647.97 252.76ZM636.495 239.047L658.784 218.967C654.136 213.808 649.315 209.08 644.307 205.018L625.407 228.316L606.507 251.613C608.534 253.258 611.105 255.684 614.207 259.128L636.495 239.047ZM625.407 228.316L595.465 230.18L598.983 286.671L628.925 284.806L658.867 282.942L655.349 226.451L625.407 228.316ZM628.925 284.806L627.06 254.864L602.508 256.393L604.372 286.335L606.237 316.277L630.79 314.748L628.925 284.806ZM604.372 286.335L634.314 284.471L626.619 160.91L596.677 162.775L566.735 164.639L574.43 288.2L604.372 286.335ZM596.677 162.775L598.542 192.717L623.095 191.188L621.23 161.246L619.365 131.304L594.813 132.833L596.677 162.775ZM621.23 161.246L591.288 163.11L594.483 214.411L624.425 212.546L654.367 210.681L651.172 159.381L621.23 161.246ZM624.425 212.546L649.121 229.579C652.151 225.185 655.235 220.432 658.373 215.342L632.836 199.598L607.299 183.855C604.613 188.212 602.089 192.091 599.729 195.514L624.425 212.546ZM632.836 199.598L658.373 215.342C661.594 210.117 664.614 204.875 667.428 199.613L640.973 185.465L614.519 171.317C612.307 175.453 609.902 179.632 607.299 183.855L632.836 199.598ZM640.973 185.465L667.125 200.166C670.11 194.855 672.842 189.564 675.304 184.295L648.125 171.594L620.946 158.893C619.165 162.705 617.129 166.662 614.822 170.765L640.973 185.465ZM648.125 171.594L675.304 184.295C677.682 179.206 679.767 174.325 681.486 169.701L653.368 159.244L625.249 148.787C624.222 151.548 622.812 154.901 620.946 158.893L648.125 171.594ZM653.368 159.244L655.232 189.186L682.979 187.458L681.114 157.516L679.249 127.574L651.503 129.302L653.368 159.244ZM681.114 157.516L653.674 145.389C652.243 148.628 650.421 152.512 648.176 157.078L675.098 170.315L702.02 183.551C704.517 178.471 706.706 173.823 708.553 169.644L681.114 157.516ZM675.098 170.315L648.05 157.336C646.163 161.269 643.882 165.598 641.171 170.335L667.21 185.234L693.249 200.133C696.562 194.342 699.539 188.725 702.145 183.293L675.098 170.315ZM667.21 185.234L641.356 170.016C638.584 174.725 635.546 179.621 632.236 184.706L657.375 201.076L682.515 217.446C686.277 211.67 689.795 206.005 693.063 200.452L667.21 185.234ZM657.375 201.076L631.965 185.128C629.027 189.811 625.913 194.319 622.625 198.655L646.531 216.78L670.436 234.905C674.802 229.147 678.918 223.185 682.786 217.024L657.375 201.076ZM646.531 216.78L627.048 239.593C630.419 242.472 634.072 245.983 637.999 250.205L659.964 229.77L681.929 209.336C676.693 203.708 671.39 198.56 666.013 193.967L646.531 216.78ZM659.964 229.77L637.999 250.205C641.648 254.127 645.168 258.448 648.548 263.194L672.985 245.792L697.422 228.391C692.604 221.624 687.443 215.264 681.929 209.336L659.964 229.77ZM672.985 245.792L649.011 263.827C652.473 268.428 655.607 273.2 658.421 278.146L684.496 263.311L710.571 248.475C706.485 241.293 701.945 234.386 696.959 227.758L672.985 245.792ZM684.496 263.311L658.549 278.369C661.297 283.103 663.428 287.536 665.034 291.671L693.001 280.816L720.968 269.96C718.118 262.617 714.58 255.38 710.443 248.252L684.496 263.311ZM693.001 280.816L691.136 250.874L663.39 252.602L665.254 282.544L667.119 312.486L694.865 310.758L693.001 280.816Z" fill="white" mask="url(#path-1-outside-1_604_810)"/>
</g>
<defs>
<filter id="filter0_d_604_810" x="65.1976" y="119.516" width="663.803" height="250.431" filterUnits="userSpaceOnUse" color-interpolation-filters="sRGB">
<feFlood flood-opacity="0" result="BackgroundImageFix"/>
<feColorMatrix in="SourceAlpha" type="matrix" values="0 0 0 0 0 0 0 0 0 0 0 0 0 0 0 0 0 0 127 0" result="hardAlpha"/>
<feOffset dx="-10" dy="8"/>
<feGaussianBlur stdDeviation="8"/>
<feComposite in2="hardAlpha" operator="out"/>
<feColorMatrix type="matrix" values="0 0 0 0 0.282353 0 0 0 0 0.356863 0 0 0 0 0.341176 0 0 0 0.25 0"/>
<feBlend mode="normal" in2="BackgroundImageFix" result="effect1_dropShadow_604_810"/>
<feBlend mode="normal" in="SourceGraphic" in2="effect1_dropShadow_604_810" result="shape"/>
</filter>
<linearGradient id="paint0_linear_604_810" x1="189.478" y1="3.03235e-05" x2="1010.52" y2="630" gradientUnits="userSpaceOnUse">
<stop stop-color="#F0F4FB"/>
<stop offset="1" stop-color="#3B82F6"/>
</linearGradient>
</defs>
</svg>
